<svg  xmlns="http://www.w3.org/2000/svg"
	 width="793.701px" height="623.622px" viewBox="0 0 793.701 623.622" >
	<path fill-rule="evenodd" clip-rule="evenodd" fill="#1A1A1A" d="M53.419,6.462H786.12v21.959H53.419
		c-6.555,0-12.523,2.69-16.857,7.023c-4.333,4.333-7.023,10.301-7.023,16.856v519.02c0,6.555,2.69,12.523,7.023,16.857
		c4.333,4.333,10.301,7.023,16.857,7.023H786.12v21.958H53.419c-12.617,0-24.08-5.154-32.382-13.456
		c-8.303-8.302-13.456-19.765-13.456-32.382V52.301c0-12.617,5.154-24.08,13.456-32.382C29.34,11.617,40.802,6.462,53.419,6.462z"/>
	<path fill-rule="evenodd" clip-rule="evenodd" fill="#1A1A1A" d="M314.91,334.918l77.581,77.581c4.287,4.287,4.287,11.238,0,15.526
		c-4.287,4.287-11.238,4.287-15.526,0l-77.581-77.582c-6.694,5.272-14.157,9.666-22.208,13.001
		c-11.069,4.585-23.15,7.116-35.759,7.116c-25.848,0-49.251-10.478-66.191-27.418c-16.94-16.94-27.418-40.342-27.418-66.191
		c0-25.848,10.478-49.251,27.418-66.19c16.94-16.94,40.342-27.419,66.191-27.419c25.848,0,49.251,10.479,66.19,27.419
		c16.94,16.94,27.418,40.342,27.418,66.19c0,12.61-2.53,24.691-7.115,35.76C324.575,320.761,320.181,328.224,314.91,334.918
		L314.91,334.918z M292.082,226.286c-12.965-12.965-30.879-20.985-50.665-20.985c-19.787,0-37.7,8.02-50.665,20.985
		c-12.966,12.965-20.985,30.879-20.985,50.665c0,19.787,8.019,37.7,20.985,50.665c12.965,12.966,30.878,20.985,50.665,20.985
		c9.774,0,19.039-1.92,27.439-5.399c8.695-3.602,16.574-8.934,23.226-15.586c6.652-6.652,11.984-14.531,15.585-23.226
		c3.48-8.4,5.4-17.665,5.4-27.439C313.067,257.165,305.047,239.251,292.082,226.286z"/>
	
		<rect x="555.152" y="72.18" fill-rule="evenodd" clip-rule="evenodd" fill="#1A1A1A" stroke="#F7F7F7" stroke-width="0.216" stroke-miterlimit="22.9256" width="33.568" height="479.261"/>
</svg>
